<?xml version="1.0" encoding="UTF-8"?>
<svg xmlns="http://www.w3.org/2000/svg" xmlns:xlink="http://www.w3.org/1999/xlink" width="3750" height="3750" viewBox="0 0 3750 3750">
<rect x="-375" y="-375" width="4500" height="4500" fill="rgb(100%, 100%, 100%)" fill-opacity="1"/>
<path fill-rule="nonzero" fill="rgb(0%, 0%, 0%)" fill-opacity="1" d="M 2234.320312 438.890625 L 2235.179688 448.308594 C 2239.78125 496.769531 2251.789062 533.71875 2271.210938 559.148438 C 2371.839844 672.949219 2427.449219 741.871094 2438.019531 765.890625 C 2467.800781 827.121094 2482.898438 874.710938 2483.339844 908.660156 C 2509.660156 907.101562 2541.789062 938.210938 2579.738281 1001.96875 C 2595.738281 1027.890625 2601.78125 1059.070312 2597.859375 1095.511719 L 2618.230469 1116.808594 L 2627.390625 1077.628906 C 2613.03125 963.429688 2607.359375 886.78125 2610.398438 847.671875 C 2630.140625 860.960938 2645.800781 888.78125 2657.359375 931.128906 C 2668.339844 954.71875 2676.410156 1030.359375 2681.570312 1158.039062 L 2692.980469 1143.410156 L 2694.671875 1048.191406 L 2744.039062 1046.839844 L 2743.851562 1131.148438 C 2758.808594 1117.859375 2773.769531 1112.320312 2788.710938 1114.539062 C 2792.121094 1147.699219 2789.871094 1178.289062 2781.949219 1206.289062 L 2810.378906 1185.371094 L 2803.210938 1247.339844 C 2765.730469 1272.730469 2742.671875 1308.53125 2734.058594 1354.710938 C 2745.589844 1360.390625 2754.96875 1367.058594 2762.199219 1374.699219 C 2803.878906 1434.699219 2832.300781 1469.121094 2847.480469 1477.980469 L 2899.199219 1500.289062 C 2903.128906 1482.769531 2900.148438 1465.519531 2890.238281 1448.558594 C 2900.378906 1452.191406 2908.828125 1457.140625 2915.621094 1463.371094 C 2956.328125 1515.671875 2984.710938 1548.308594 3000.738281 1561.289062 C 3003.148438 1567.5 3000.929688 1581.410156 2994.058594 1603.019531 C 3007.390625 1597.351562 3017.160156 1585.238281 3023.390625 1566.679688 C 3030.058594 1556.390625 3032.28125 1523.121094 3030.070312 1466.890625 L 3039.660156 1473.980469 C 3063.558594 1494.960938 3074.339844 1537.808594 3072 1602.53125 C 3072.769531 1606.03125 3078.5 1602.808594 3089.160156 1592.871094 C 3090.71875 1592.660156 3092.058594 1594.261719 3093.160156 1597.660156 C 3096.109375 1620.429688 3091.960938 1636.210938 3080.71875 1645.019531 C 3096.539062 1639.589844 3106.339844 1641.488281 3110.109375 1650.699219 C 3123.648438 1664.550781 3097.640625 1720.929688 3032.070312 1819.839844 C 3034.628906 1853.488281 3032.160156 1876.359375 3024.648438 1888.449219 L 3021.601562 1892.480469 C 3024.238281 1886.640625 3023.820312 1879.589844 3020.359375 1871.351562 L 3009.109375 1870.378906 C 2998.828125 1873.230469 2983 1883.070312 2961.609375 1899.910156 C 2948.019531 1821.980469 2922.058594 1801.179688 2883.75 1837.488281 C 2872.070312 1810.859375 2870.730469 1788.300781 2879.730469 1769.808594 L 2873.609375 1765.339844 C 2855.800781 1754.890625 2825.871094 1756.320312 2783.839844 1769.609375 C 2761.269531 1735.078125 2743.359375 1711.75 2730.101562 1699.609375 C 2716.488281 1685.578125 2693.820312 1675.03125 2662.101562 1667.960938 L 2593.371094 1607.089844 C 2545.890625 1595.238281 2480.429688 1559.929688 2396.980469 1501.140625 C 2387.671875 1507.449219 2381.421875 1513.359375 2378.238281 1518.871094 C 2366 1528.761719 2375.761719 1554.898438 2407.5 1597.28125 C 2438.089844 1627.351562 2466.378906 1630 2492.371094 1605.230469 C 2509.578125 1614.070312 2524.789062 1644.660156 2538 1696.980469 C 2567.730469 1688.269531 2597.089844 1686.621094 2626.058594 1692.019531 L 2645.71875 1762.460938 C 2657.949219 1748.53125 2681.53125 1740.320312 2716.441406 1737.839844 L 2749.71875 1826.96875 C 2781.339844 1804.371094 2803.898438 1795.429688 2817.390625 1800.121094 C 2835.769531 1827.539062 2848.019531 1859.269531 2854.109375 1895.289062 C 2868.019531 1881.800781 2887.410156 1875.511719 2912.28125 1876.410156 L 2929.921875 1940.101562 C 2954.96875 1942.609375 2966.101562 1939.628906 2963.308594 1931.179688 C 2967.320312 1948.671875 2962.558594 1969.160156 2949.039062 1992.628906 C 2944.671875 1996.429688 2939.609375 1990.890625 2933.839844 1976.03125 C 2891.699219 2008.371094 2864.03125 2034.96875 2850.828125 2055.820312 C 2835.039062 2076.871094 2826.910156 2114.828125 2826.441406 2169.71875 C 2802.839844 2159.5 2801.359375 2109.671875 2821.980469 2020.21875 C 2794.691406 2038.808594 2769.808594 2067.609375 2747.359375 2106.621094 C 2751.070312 2071.039062 2780.128906 2023.640625 2834.53125 1964.421875 C 2812.929688 1955.78125 2789.171875 1957.339844 2763.230469 1969.089844 C 2716.351562 1996.660156 2680.539062 2027.269531 2655.808594 2060.929688 C 2659.820312 2027.480469 2700.140625 1976.710938 2776.769531 1908.601562 L 2747.378906 1889.871094 C 2717.839844 1878.519531 2652.160156 1922.5 2550.339844 2021.828125 C 2585.570312 1949.679688 2637.429688 1898.058594 2705.898438 1866.988281 L 2694.710938 1856.589844 C 2658.769531 1834.980469 2574.109375 1862.421875 2440.730469 1938.898438 C 2463.25 1897.289062 2527.011719 1856.980469 2632 1817.980469 L 2609.710938 1797.441406 C 2503.710938 1798.25 2436.359375 1813.011719 2407.679688 1841.71875 C 2422.28125 1804.699219 2453.648438 1771.140625 2501.789062 1741.03125 C 2435.378906 1733.589844 2381.03125 1739.128906 2338.761719 1757.660156 C 2280.421875 1776.070312 2266.699219 1838.300781 2297.589844 1944.351562 C 2243.390625 1896.460938 2213.539062 1844.078125 2208.019531 1787.230469 C 2219.800781 1737.019531 2258.53125 1690.75 2324.199219 1648.449219 C 2245.480469 1657.089844 2202.609375 1670.121094 2195.578125 1687.550781 C 2173.769531 1714.820312 2163.019531 1758.339844 2163.328125 1818.089844 C 2137.738281 1792 2119.109375 1765 2107.429688 1737.121094 L 2090.621094 1619.570312 C 2061.449219 1624.269531 2032.75 1661.441406 2004.550781 1731.101562 C 1980.390625 1822.78125 1988.789062 1900.941406 2029.738281 1965.570312 C 2050.160156 2015.328125 2132.03125 2106.390625 2275.351562 2238.75 L 2200.179688 2242.730469 C 2284.71875 2295.769531 2358.570312 2351.96875 2421.761719 2411.359375 L 2555.609375 2489.441406 C 2577.261719 2508.148438 2598.539062 2538.429688 2619.449219 2580.289062 L 2489.289062 2512.359375 L 2487.199219 2557.21875 L 2390.789062 2461.558594 C 2424.699219 2501.921875 2436.738281 2543.46875 2426.941406 2586.21875 C 2461.941406 2595.78125 2491.410156 2614.539062 2515.351562 2642.480469 C 2536.410156 2658.269531 2557.699219 2707.558594 2579.199219 2790.347656 C 2562.949219 2785.222656 2528.820312 2746.738281 2476.820312 2674.898438 C 2465.328125 2664.890625 2447.640625 2656.371094 2423.738281 2649.339844 C 2456.5 2684.179688 2472.199219 2710 2470.839844 2726.820312 C 2452.46875 2784.855469 2443.699219 2830.582031 2444.519531 2863.988281 C 2456.511719 2858.289062 2464.21875 2852.03125 2467.640625 2845.21875 C 2473.019531 2798.128906 2477.699219 2775.179688 2481.699219 2776.371094 C 2509.980469 2783.289062 2527.570312 2803.492188 2534.46875 2836.988281 C 2538.769531 2854.980469 2536.789062 2935.707031 2528.511719 3079.160156 C 2528.550781 3092.136719 2529.949219 3099.871094 2532.710938 3102.363281 C 2521.171875 3093.875 2512.859375 3082.957031 2507.761719 3069.597656 L 2473.988281 2934.210938 C 2471.359375 2922.714844 2452.898438 2918.710938 2418.628906 2922.191406 C 2455.71875 2967.894531 2447.890625 3051.394531 2395.128906 3172.699219 C 2375.160156 3217.644531 2321.5 3268.953125 2234.128906 3326.625 C 2289.730469 3259.386719 2321.859375 3212.355469 2330.519531 3185.535156 C 2338.050781 3161.539062 2341.910156 3134.015625 2342.109375 3102.960938 C 2327.011719 3115.769531 2298.460938 3118.46875 2256.449219 3111.050781 C 2297.75 3084.089844 2326.53125 3057.125 2342.78125 3030.15625 C 2362.011719 3009.933594 2362.75 2976.210938 2344.988281 2929 C 2327.699219 2897.074219 2294.441406 2893.707031 2245.210938 2918.898438 C 2241.941406 2922.609375 2241.730469 2925.59375 2244.578125 2927.847656 C 2278.621094 2938.304688 2299.519531 2949.929688 2307.261719 2962.726562 C 2318.660156 2979.125 2318.488281 3002.960938 2306.730469 3034.226562 C 2293.601562 3058.722656 2282.929688 3070.894531 2274.71875 3070.746094 C 2246.589844 3049.746094 2224.859375 3041.976562 2209.519531 3047.4375 L 2160.71875 3101.117188 C 2149.300781 3108.390625 2124.539062 3087.542969 2086.429688 3038.578125 L 1991.289062 3003.261719 C 2045.628906 3032.59375 2073.160156 3058.410156 2073.890625 3080.707031 C 2082.789062 3118.226562 2079.738281 3172.242188 2064.75 3242.753906 C 2053.890625 3197.246094 2038.308594 3160.679688 2018.019531 3133.054688 C 2005.449219 3107.304688 1972.710938 3086.742188 1919.789062 3071.367188 C 1985.671875 3095.636719 2017.671875 3138.566406 2015.78125 3200.152344 C 2010.449219 3261.703125 2000.78125 3306.984375 1986.769531 3335.996094 C 1977 3352.648438 1968.71875 3344.160156 1961.921875 3310.53125 C 1927.078125 3414.9375 1903.941406 3460.933594 1892.5 3448.519531 C 1886.140625 3453.371094 1873.261719 3437.824219 1853.859375 3401.875 C 1837.011719 3422.976562 1818.589844 3438.433594 1798.601562 3448.25 C 1816.480469 3413.988281 1825.621094 3386.867188 1826.03125 3366.890625 L 1819.980469 3319.140625 L 1770.949219 3347.359375 C 1790.210938 3298.269531 1796.679688 3251.929688 1790.359375 3208.335938 C 1793.039062 3199.066406 1808 3203.164062 1835.261719 3220.628906 C 1824.929688 3206.140625 1807.480469 3191.835938 1782.898438 3177.710938 L 1704.871094 3148.183594 C 1705.230469 3194.316406 1681.621094 3236.078125 1634.03125 3273.460938 L 1567.308594 3205.796875 C 1539.511719 3222.460938 1513.539062 3233.195312 1489.410156 3237.992188 L 1599.210938 3100.800781 C 1604.75 3039.691406 1616.390625 2997.449219 1634.128906 2974.074219 L 1598.609375 2978.132812 C 1638.121094 2926.320312 1665.078125 2896.5625 1679.480469 2888.859375 C 1725.691406 2859.183594 1769.589844 2842.796875 1811.191406 2839.703125 C 1843.691406 2829.90625 1892.089844 2846.804688 1956.390625 2890.398438 C 1905.339844 2880.546875 1859.769531 2884.664062 1819.679688 2902.753906 C 1762.339844 2940.585938 1745.570312 2969.945312 1769.339844 2990.828125 L 2007.339844 2947.382812 C 2051.328125 2931.976562 2095.328125 2894.757812 2139.339844 2835.71875 C 2159.5 2806.929688 2163.691406 2775.902344 2151.910156 2742.640625 C 2145.128906 2702.519531 2076.128906 2669.859375 1944.898438 2644.691406 L 2083.839844 2783.589844 L 2069.46875 2788.449219 C 2030.28125 2797.050781 1984.378906 2770.765625 1931.761719 2709.589844 C 1909.691406 2733.390625 1890.269531 2747.839844 1873.46875 2752.9375 C 1824.691406 2764.074219 1725.480469 2799.5625 1575.820312 2859.402344 C 1514.148438 2885.304688 1532.351562 2847.855469 1630.398438 2747.058594 C 1600.871094 2761.992188 1566.550781 2795.988281 1527.441406 2849.042969 C 1519.351562 2854.152344 1506.539062 2859.523438 1489.019531 2865.152344 L 1406.390625 2892.230469 L 1427.238281 2810.507812 C 1366.550781 2857.925781 1306.460938 2879.769531 1247 2876.046875 L 1358.578125 2709.179688 C 1329.550781 2711.191406 1305.519531 2704.460938 1286.5 2689.011719 C 1343.949219 2643.28125 1397.210938 2616.738281 1446.269531 2609.398438 L 1397.871094 2564.550781 L 1537.679688 2518.839844 C 1540.398438 2513 1597.289062 2539.71875 1708.351562 2599.019531 C 1665.941406 2570.109375 1626.46875 2532.820312 1589.941406 2487.148438 C 1569.96875 2480.050781 1517.449219 2475.660156 1432.378906 2473.980469 L 1463.769531 2429.601562 L 1395 2413.378906 L 1425.460938 2383.25 L 1368.328125 2379.328125 L 1287.339844 2317.160156 C 1290.730469 2388.820312 1278.410156 2454.769531 1250.351562 2515.019531 C 1221.539062 2504.871094 1200.691406 2487.070312 1187.78125 2461.640625 C 1172.839844 2491.710938 1149.191406 2524.011719 1116.828125 2558.53125 L 1103.339844 2642.148438 C 1069.5 2597.300781 1053.019531 2548.320312 1053.890625 2495.230469 L 1008.039062 2535.820312 L 1046.488281 2357.761719 L 960.25 2454.871094 L 975.460938 2311.878906 L 948.050781 2330.210938 C 963.078125 2273.859375 968.019531 2236.449219 962.867188 2218 L 989.929688 2190.5 C 986.285156 2168.96875 994.703125 2142.53125 1015.191406 2111.160156 C 1014.328125 2128.960938 1019.730469 2137.429688 1031.390625 2136.558594 L 1032.558594 2088.089844 C 1014.511719 2088.5 992.152344 2123.328125 965.476562 2192.558594 C 959.300781 2196.71875 953.355469 2193.121094 947.644531 2181.761719 L 880.289062 2236.800781 L 905.300781 2087.378906 L 877.558594 2097.359375 C 880.550781 2058.691406 893.597656 2015.089844 916.699219 1966.519531 L 819.742188 1974.691406 L 864.96875 1759.539062 L 847.097656 1758.941406 L 882.1875 1604.558594 L 897.679688 1590.121094 L 929.976562 1623.789062 L 940.785156 1563.710938 C 966.792969 1542.441406 978.550781 1527.941406 976.054688 1520.210938 C 969.847656 1507.820312 962.210938 1502.960938 953.148438 1505.621094 L 773.890625 1652.140625 L 854.597656 1465.949219 L 840.167969 1462.300781 C 910.175781 1401.578125 944.25 1365.941406 942.398438 1355.410156 C 943.160156 1351.160156 939.308594 1347.289062 930.847656 1343.789062 C 902.398438 1341.828125 865.109375 1332.339844 818.980469 1315.328125 L 1264.351562 1156.179688 L 1207.070312 1125.519531 L 859.832031 1200.628906 C 931.476562 1126.121094 996.863281 1072.5 1055.988281 1039.761719 L 943.71875 952.519531 C 977.347656 960.601562 1017.230469 964.871094 1063.359375 965.351562 C 1260.050781 936.539062 1366.859375 929.390625 1383.789062 943.890625 L 1388.671875 871.539062 C 1187.730469 775.191406 1062.5 671.089844 1012.980469 559.261719 C 982.4375 500.25 988.03125 415.238281 1029.761719 304.230469 C 1050.738281 405.28125 1066.410156 462.730469 1076.75 476.570312 C 1091.039062 510.890625 1107.878906 542.558594 1127.289062 571.578125 C 1163.78125 627.839844 1215.148438 677.039062 1281.410156 719.191406 C 1306.949219 736.050781 1388.488281 774.140625 1526.019531 833.460938 L 1673.71875 921.039062 L 1740.441406 914.949219 C 1741.570312 906.261719 1731.800781 895.21875 1711.109375 881.839844 C 1701.738281 873.121094 1658.839844 852.730469 1582.410156 820.660156 L 1688.238281 818.558594 L 1609.191406 744.898438 L 1418.078125 677.621094 L 1561.589844 657.960938 C 1504.359375 565.140625 1453.351562 498.378906 1408.539062 457.699219 C 1385.789062 431.160156 1336.75 414.21875 1261.410156 406.859375 C 1346.109375 388.519531 1403.429688 387.441406 1433.390625 403.628906 C 1471.089844 421.679688 1495.859375 438.601562 1507.679688 454.390625 C 1631.160156 631.339844 1718.519531 735.390625 1769.761719 766.539062 C 1820.691406 809.910156 1868.199219 845.511719 1912.289062 873.339844 C 1945.449219 897.058594 2016.660156 937.511719 2125.941406 994.691406 L 2261.320312 1095.148438 C 2216.109375 1019.5 2179.429688 970 2151.269531 946.648438 L 2004.761719 857.328125 C 1949.230469 813.601562 1887.828125 759.929688 1820.558594 696.308594 L 1994.890625 735.730469 C 1990.019531 667.21875 1975.210938 612.300781 1950.441406 570.960938 C 1921.660156 532.308594 1876.511719 497.671875 1815 467.019531 C 1839.550781 469 1870.21875 474.75 1907.011719 484.28125 C 1943.089844 494.71875 1975.949219 515.191406 2005.589844 545.699219 C 2016.339844 555.148438 2058.96875 622.230469 2133.480469 746.941406 C 2144.890625 765.671875 2171.199219 787.351562 2212.390625 811.960938 C 2226.300781 749.609375 2218.46875 675.898438 2188.898438 590.839844 C 2241.820312 646.679688 2266.699219 699.269531 2263.53125 748.621094 C 2271.941406 725.890625 2275.96875 710.070312 2275.628906 701.160156 C 2275.621094 685.449219 2273.839844 672.921875 2270.308594 663.570312 C 2229.480469 590.058594 2208.238281 546.390625 2206.578125 532.539062 C 2201.53125 507.070312 2210.78125 475.859375 2234.320312 438.890625 "/>
<path fill-rule="nonzero" fill="rgb(99.609375%, 99.609375%, 99.609375%)" fill-opacity="1" d="M 2452.261719 1261.351562 L 2463.191406 1261.609375 C 2503.691406 1261.878906 2533.789062 1267.019531 2553.511719 1277.039062 C 2559.179688 1279.839844 2564.488281 1283.21875 2569.449219 1287.179688 L 2576.589844 1293.609375 C 2581.148438 1298.210938 2585.511719 1303.238281 2589.671875 1308.691406 L 2614.921875 1343.480469 C 2619.371094 1349.410156 2624.179688 1355.148438 2629.328125 1360.691406 C 2634.488281 1366.230469 2640.191406 1371.371094 2646.429688 1376.109375 L 2656.320312 1382.761719 L 2667.230469 1388.539062 C 2674.871094 1392.078125 2682.769531 1395.121094 2690.949219 1397.671875 C 2699.128906 1400.210938 2707.109375 1402.371094 2714.910156 1404.128906 C 2717.300781 1404.871094 2729.878906 1407.371094 2752.648438 1411.648438 C 2756.96875 1412.5 2759.730469 1413.289062 2760.949219 1414.011719 C 2763.609375 1415.628906 2756.851562 1417.339844 2740.660156 1419.109375 C 2722.480469 1420.789062 2703.988281 1421.390625 2685.160156 1420.941406 C 2630.589844 1420.039062 2589.21875 1409.230469 2561.050781 1388.511719 C 2530.808594 1368.089844 2494.550781 1325.699219 2452.261719 1261.351562 "/>
<path fill-rule="nonzero" fill="rgb(99.609375%, 99.609375%, 99.609375%)" fill-opacity="1" d="M 1360.191406 1117.929688 L 1360.878906 1118 C 1374.679688 1119.628906 1389.929688 1119.980469 1406.628906 1119.050781 C 1413.078125 1118.679688 1418.960938 1117.941406 1424.261719 1116.839844 C 1425.179688 1116.628906 1425.910156 1116.308594 1426.449219 1115.871094 C 1427.039062 1115.320312 1427.199219 1114.691406 1426.941406 1114 C 1424.429688 1110.578125 1413.730469 1105.320312 1394.820312 1098.21875 C 1377.839844 1091.96875 1364.121094 1088.378906 1353.660156 1087.441406 C 1341.820312 1086.308594 1326.300781 1086.710938 1307.101562 1088.679688 C 1289.539062 1090.75 1280.539062 1093.019531 1280.101562 1095.46875 C 1280.480469 1097.148438 1281.679688 1098.300781 1283.691406 1098.921875 L 1298.5 1103.710938 L 1308.75 1106.730469 C 1329.859375 1112.421875 1347 1116.148438 1360.191406 1117.929688 "/>
<path fill-rule="nonzero" fill="rgb(99.609375%, 99.609375%, 99.609375%)" fill-opacity="1" d="M 1683.238281 1170.109375 L 1662.089844 1165.359375 C 1598.539062 1151.019531 1551.128906 1142.328125 1519.851562 1139.300781 C 1507.199219 1137.929688 1494.96875 1137.058594 1483.160156 1136.710938 L 1465.808594 1136.640625 C 1454.488281 1136.890625 1443.710938 1137.800781 1433.460938 1139.371094 C 1402.941406 1144.710938 1376.601562 1153.46875 1354.441406 1165.648438 C 1347 1169.519531 1339.929688 1173.460938 1333.230469 1177.480469 C 1291.03125 1204.488281 1254.140625 1227.078125 1222.570312 1245.25 C 1248.550781 1235.300781 1270.019531 1227.808594 1287.011719 1222.789062 C 1299.191406 1219.339844 1306.539062 1217.390625 1309.058594 1216.921875 C 1341.371094 1210.238281 1358.441406 1206.511719 1360.28125 1205.71875 C 1371.570312 1202.421875 1378.128906 1200.230469 1379.980469 1199.148438 C 1389.871094 1194.390625 1395.519531 1191.230469 1396.929688 1189.660156 L 1428.898438 1162.890625 C 1436.660156 1158.609375 1441.511719 1156.609375 1443.460938 1156.910156 C 1450.519531 1155.878906 1458.519531 1157.140625 1467.449219 1160.710938 C 1471.890625 1162.410156 1476.480469 1164.441406 1481.210938 1166.800781 L 1524.960938 1189.800781 C 1529.78125 1192.101562 1534.488281 1194.058594 1539.109375 1195.691406 C 1543.710938 1197.320312 1548.230469 1198.640625 1552.660156 1199.640625 C 1554.949219 1200.480469 1561.429688 1201.359375 1572.089844 1202.269531 C 1582.640625 1203.21875 1597.070312 1201.359375 1615.378906 1196.679688 C 1633.800781 1191.5 1656.421875 1182.640625 1683.238281 1170.109375 "/>
<path fill-rule="nonzero" fill="rgb(99.609375%, 99.609375%, 99.609375%)" fill-opacity="1" d="M 2188.589844 1237.660156 L 2172.320312 1225.320312 C 2101.5 1170.871094 2043.351562 1130.039062 1997.859375 1102.839844 C 1957.160156 1077.910156 1899.601562 1050.828125 1825.171875 1021.589844 L 2188.589844 1237.660156 "/>
<path fill-rule="nonzero" fill="rgb(99.609375%, 99.609375%, 99.609375%)" fill-opacity="1" d="M 2817.269531 1509.058594 L 2817 1508.878906 C 2816.171875 1507.988281 2812.539062 1506.480469 2806.109375 1504.359375 C 2797.21875 1501.511719 2785.699219 1498.25 2771.550781 1494.589844 C 2742.660156 1487.058594 2715.429688 1480.800781 2689.859375 1475.800781 C 2663.179688 1470.570312 2636.699219 1466.441406 2610.410156 1463.398438 C 2591.648438 1461.300781 2585.539062 1462 2592.078125 1465.511719 C 2593.75 1466.648438 2595.589844 1467.558594 2597.609375 1468.21875 L 2605.230469 1470.601562 L 2627.519531 1478.671875 C 2645.46875 1484.769531 2659.441406 1489.339844 2669.449219 1492.398438 C 2687.5 1498.121094 2705.769531 1502.800781 2724.261719 1506.429688 C 2742.851562 1509.808594 2761.480469 1511.699219 2780.160156 1512.121094 C 2792.921875 1512.441406 2802.199219 1512.339844 2808.011719 1511.820312 C 2809.839844 1511.910156 2812.929688 1510.980469 2817.269531 1509.058594 "/>
<path fill-rule="nonzero" fill="rgb(99.609375%, 99.609375%, 99.609375%)" fill-opacity="1" d="M 2951.46875 1646.429688 L 2951.609375 1646.371094 C 2952.851562 1646.070312 2952.570312 1644.921875 2950.761719 1642.941406 L 2943.921875 1636.769531 C 2927.941406 1623.5 2918.5 1615.46875 2915.609375 1612.679688 C 2910.480469 1608.050781 2906.839844 1604.160156 2904.699219 1601.011719 C 2901.839844 1596.511719 2900.269531 1593.238281 2900 1591.210938 C 2899.339844 1589.359375 2898.5 1583.480469 2897.46875 1573.601562 C 2896.941406 1570.570312 2896.421875 1568.441406 2895.898438 1567.21875 C 2893.988281 1562.640625 2891.800781 1559.339844 2889.339844 1557.328125 C 2883.789062 1552.921875 2878.589844 1549.53125 2873.75 1547.160156 C 2868.578125 1544.511719 2863.238281 1542.160156 2857.75 1540.128906 C 2836.929688 1532.410156 2823.789062 1529.25 2818.320312 1530.621094 C 2813.339844 1531.789062 2815.410156 1541.351562 2824.519531 1559.308594 C 2835.78125 1578.941406 2846.128906 1592.828125 2855.578125 1600.960938 C 2862.410156 1607.609375 2874.46875 1615.171875 2891.769531 1623.628906 C 2919.828125 1636.710938 2939.730469 1644.308594 2951.46875 1646.429688 "/>
<path fill-rule="nonzero" fill="rgb(99.609375%, 99.609375%, 99.609375%)" fill-opacity="1" d="M 2972.230469 1751.589844 L 2972.410156 1751.601562 C 2973.859375 1751.621094 2974.851562 1751.398438 2975.378906 1750.929688 C 2975.671875 1750.621094 2975.78125 1749.769531 2975.710938 1748.398438 C 2974.980469 1744.550781 2973.320312 1739.921875 2970.71875 1734.511719 C 2968.089844 1729.039062 2964.160156 1722.5 2958.949219 1714.878906 C 2955.179688 1709.671875 2951.960938 1705.898438 2949.269531 1703.570312 C 2944.550781 1699 2936.558594 1693.898438 2925.308594 1688.269531 C 2909.058594 1680.179688 2894.191406 1674.019531 2880.71875 1669.800781 C 2877.339844 1669.960938 2876.441406 1670.960938 2878.011719 1672.800781 C 2880.539062 1676.011719 2886.941406 1682.230469 2897.199219 1691.449219 C 2933.769531 1723.488281 2958.789062 1743.53125 2972.230469 1751.589844 "/>
<path fill-rule="nonzero" fill="rgb(99.609375%, 99.609375%, 99.609375%)" fill-opacity="1" d="M 2769.761719 1592.570312 L 2769.660156 1592.480469 C 2768.28125 1591.140625 2757.878906 1584.5 2738.441406 1572.550781 C 2732.738281 1568.890625 2728.070312 1565.699219 2724.441406 1562.960938 C 2721.660156 1561.550781 2717.46875 1558.859375 2711.871094 1554.910156 C 2707.699219 1551.921875 2703.269531 1548.398438 2698.589844 1544.359375 L 2682.410156 1530.339844 C 2681.910156 1529.941406 2681.101562 1529.070312 2679.988281 1527.75 L 2682.230469 1530.730469 C 2685.648438 1536.308594 2687.988281 1539.960938 2689.261719 1541.691406 L 2694.691406 1548.890625 C 2700.609375 1556.039062 2705.660156 1561.339844 2709.808594 1564.789062 C 2714.941406 1569.148438 2718.300781 1571.789062 2719.898438 1572.71875 C 2723.898438 1575.058594 2728.980469 1577.660156 2735.140625 1580.539062 C 2741.929688 1583.699219 2749.691406 1586.820312 2758.429688 1589.878906 C 2763.519531 1591.578125 2766.679688 1592.539062 2767.898438 1592.78125 C 2768.621094 1593.050781 2769.238281 1592.980469 2769.761719 1592.570312 "/>
<path fill-rule="nonzero" fill="rgb(99.609375%, 99.609375%, 99.609375%)" fill-opacity="1" d="M 2556.359375 1474.789062 L 2556.25 1474.679688 C 2556.761719 1474.328125 2542.539062 1464.71875 2513.589844 1445.859375 L 2482.429688 1423.820312 C 2481.191406 1423.179688 2469.039062 1413.980469 2445.96875 1396.230469 L 2431.539062 1385.75 C 2440.539062 1397.011719 2450.949219 1408.28125 2462.75 1419.558594 C 2468.691406 1425.378906 2476.738281 1432.371094 2486.890625 1440.53125 C 2490.238281 1442.898438 2494.398438 1445.558594 2499.371094 1448.488281 C 2509.929688 1454.730469 2521.128906 1460.570312 2532.960938 1466.03125 C 2548.460938 1472.921875 2556.261719 1475.839844 2556.359375 1474.789062 "/>
<path fill-rule="nonzero" fill="rgb(99.609375%, 99.609375%, 99.609375%)" fill-opacity="1" d="M 1821.101562 1996.441406 L 1825.398438 2006.621094 C 1832.960938 2027.039062 1845.191406 2047.238281 1862.089844 2067.230469 C 1878.78125 2083.761719 1890.140625 2093.621094 1896.179688 2096.800781 C 1905.46875 2103.289062 1916.179688 2109.710938 1928.308594 2116.070312 C 1973.191406 2141.679688 2083.609375 2178.089844 2259.578125 2225.300781 C 2173.609375 2183.699219 2084.039062 2140.980469 1990.871094 2097.140625 C 1975.289062 2089.648438 1960.578125 2082.300781 1946.738281 2075.089844 C 1911.671875 2057.171875 1869.789062 2030.949219 1821.101562 1996.441406 "/>
<path fill-rule="nonzero" fill="rgb(99.609375%, 99.609375%, 99.609375%)" fill-opacity="1" d="M 2127.839844 2107.078125 L 2110.460938 2098.851562 C 1980.390625 2039.148438 1882.328125 1983.75 1816.269531 1932.628906 C 1779.109375 1902.691406 1755.980469 1877.871094 1746.898438 1858.160156 C 1738.980469 1842.878906 1735.039062 1830.328125 1735.070312 1820.511719 C 1735.539062 1808.179688 1739.878906 1803.558594 1748.070312 1806.648438 C 1753.859375 1809.058594 1761.191406 1814.589844 1770.058594 1823.238281 L 1827.640625 1882.980469 C 1844.050781 1899.238281 1854.140625 1909.019531 1857.929688 1912.320312 C 1879.121094 1932.03125 1901.921875 1951.570312 1926.339844 1970.941406 C 1961.738281 2000.640625 2028.898438 2046.019531 2127.839844 2107.078125 "/>
<path fill-rule="nonzero" fill="rgb(99.609375%, 99.609375%, 99.609375%)" fill-opacity="1" d="M 1705.640625 1953 L 1696.058594 1943.261719 C 1652.398438 1900.050781 1627.121094 1868.800781 1620.210938 1849.511719 C 1617.589844 1841.121094 1617.519531 1833.960938 1620.03125 1828 C 1621.191406 1824.988281 1622.710938 1822.171875 1624.601562 1819.550781 L 1643.660156 1798.171875 C 1645.480469 1795.839844 1647.011719 1793.441406 1648.25 1790.960938 C 1652.039062 1783.660156 1652.929688 1775.019531 1650.929688 1765.03125 C 1650.730469 1760.558594 1646.789062 1750.648438 1639.128906 1735.328125 L 1597.441406 1666.660156 L 1586.128906 1645.191406 C 1577.191406 1625.28125 1572.011719 1604.699219 1570.578125 1583.460938 C 1612.160156 1631.390625 1645.558594 1659.839844 1670.75 1668.820312 C 1699.398438 1680.710938 1740.421875 1683.210938 1793.808594 1676.308594 C 1812.128906 1728.640625 1829.46875 1766.609375 1845.851562 1790.210938 C 1860.941406 1814.28125 1890.789062 1847.808594 1935.398438 1890.808594 C 1876.160156 1869.039062 1835.550781 1848.371094 1813.558594 1828.789062 C 1790.210938 1810.769531 1762.808594 1775.039062 1731.359375 1721.601562 C 1726.359375 1749.910156 1722.351562 1770.621094 1719.328125 1783.710938 L 1715.5 1797.960938 C 1707.71875 1819.578125 1702.511719 1835.878906 1699.890625 1846.859375 C 1696.730469 1858.730469 1694.410156 1870.949219 1692.921875 1883.53125 C 1690.039062 1904.671875 1694.28125 1927.828125 1705.640625 1953 "/>
<path fill-rule="nonzero" fill="rgb(99.609375%, 99.609375%, 99.609375%)" fill-opacity="1" d="M 1870.398438 1526.210938 L 1862.710938 1535.519531 C 1847.410156 1554.578125 1831.71875 1571.558594 1815.628906 1586.429688 C 1804.871094 1596.160156 1793.71875 1603.789062 1782.171875 1609.328125 C 1770.539062 1614.660156 1758.519531 1617.429688 1746.121094 1617.628906 C 1739.941406 1617.78125 1733.769531 1617.441406 1727.589844 1616.609375 L 1718.378906 1615.070312 C 1712.25 1613.820312 1706.21875 1612.25 1700.28125 1610.339844 C 1674.960938 1601.371094 1655.601562 1591.800781 1642.199219 1581.621094 C 1631.308594 1573.75 1623.828125 1564.21875 1619.78125 1553.03125 C 1613.148438 1528.480469 1621.871094 1500.089844 1645.949219 1467.878906 C 1664.78125 1443.078125 1687.859375 1427.78125 1715.21875 1421.96875 C 1743.421875 1415.820312 1783.75 1420.019531 1836.191406 1434.570312 C 1857.929688 1440.300781 1884.410156 1448.339844 1915.660156 1458.679688 C 1814.75 1529.289062 1765.210938 1563.429688 1767.058594 1561.121094 C 1788.089844 1563.71875 1804.390625 1562.828125 1815.96875 1558.441406 C 1827.359375 1555.070312 1845.5 1544.328125 1870.398438 1526.210938 "/>
<path fill-rule="nonzero" fill="rgb(99.609375%, 99.609375%, 99.609375%)" fill-opacity="1" d="M 2355.140625 772.640625 L 2355.070312 772.640625 C 2353.699219 772.121094 2353.738281 773.890625 2355.191406 777.960938 L 2358.039062 784.910156 C 2363.710938 797.460938 2367.710938 806.621094 2370.039062 812.429688 C 2372.269531 818.140625 2373.761719 822.648438 2374.519531 825.96875 C 2375.75 831.140625 2376.671875 836.371094 2377.269531 841.671875 C 2377.371094 841.609375 2378.410156 852.269531 2380.390625 873.660156 C 2380.890625 878.210938 2381.339844 881.671875 2381.730469 884.019531 C 2382.339844 888.160156 2383.210938 890.179688 2384.339844 890.070312 C 2385.289062 889.851562 2386.28125 887.460938 2387.300781 882.898438 C 2387.789062 881.011719 2388.488281 877.910156 2389.378906 873.589844 C 2391.28125 863.300781 2392.640625 856.460938 2393.480469 853.089844 C 2395.21875 846.511719 2396.289062 843.050781 2396.691406 842.710938 C 2397.449219 841.03125 2398.808594 840.089844 2400.769531 839.878906 C 2402.601562 839.621094 2405.640625 840.390625 2409.898438 842.191406 C 2410.96875 842.289062 2411.410156 841.890625 2411.238281 840.988281 C 2410.488281 838.679688 2408.53125 835.339844 2405.359375 830.941406 C 2396.5 819.410156 2389.300781 810.300781 2383.769531 803.609375 C 2367.839844 784.320312 2358.300781 774 2355.140625 772.640625 "/>
<path fill-rule="nonzero" fill="rgb(99.609375%, 99.609375%, 99.609375%)" fill-opacity="1" d="M 2176.890625 1394.46875 L 2170.238281 1395.609375 C 2133.101562 1400.808594 2089.078125 1413.03125 2038.191406 1432.28125 C 2028.859375 1434.699219 2019.929688 1435.789062 2011.398438 1435.558594 C 2003.089844 1435.109375 1994.738281 1433.21875 1986.359375 1429.898438 C 1942.050781 1409.339844 1911.320312 1396.738281 1894.171875 1392.089844 C 1861.359375 1382.441406 1836.351562 1376.761719 1819.140625 1375.039062 C 1757.691406 1368.171875 1709 1374.089844 1673.058594 1392.820312 C 1638.011719 1411.140625 1614.148438 1427.558594 1601.460938 1442.089844 C 1583.738281 1459.140625 1567.421875 1479.328125 1552.488281 1502.671875 C 1519.269531 1555.828125 1485.058594 1634.511719 1449.839844 1738.699219 C 1476.46875 1655.839844 1492.300781 1603.871094 1497.328125 1582.800781 L 1504.140625 1551.390625 C 1504.988281 1519.359375 1506.488281 1502.960938 1508.640625 1502.191406 C 1512.128906 1489.128906 1528.421875 1454.5 1557.519531 1398.308594 C 1505.328125 1447.558594 1464.949219 1513.398438 1436.390625 1595.808594 C 1431.460938 1618.199219 1442.839844 1617.570312 1470.5 1593.921875 C 1459.230469 1629.550781 1442.550781 1704.929688 1420.460938 1820.070312 C 1408.328125 1882.320312 1402.148438 1929.839844 1401.929688 1962.609375 C 1377.679688 1926.738281 1354.429688 1903.730469 1332.160156 1893.570312 C 1348.691406 1871.710938 1360.601562 1846.398438 1367.871094 1817.628906 C 1371.730469 1807.339844 1382 1755.210938 1398.671875 1661.25 C 1403.160156 1640.460938 1406.730469 1626.550781 1409.378906 1619.488281 C 1412.671875 1609.359375 1416.929688 1598.179688 1422.140625 1585.960938 C 1465.488281 1491.679688 1486.398438 1443.949219 1484.890625 1442.78125 C 1486.851562 1437.679688 1486.691406 1434.621094 1484.390625 1433.621094 L 1457.578125 1457.210938 C 1454.5 1459.191406 1453.871094 1458.101562 1455.699219 1453.929688 C 1491.179688 1388.320312 1526.078125 1344.160156 1560.410156 1321.460938 C 1631.828125 1271.96875 1741.660156 1252 1889.898438 1261.539062 L 1797.320312 1272.578125 C 1826.78125 1281.339844 1846.460938 1286.191406 1856.371094 1287.128906 C 1860.980469 1288.730469 1875.570312 1288.351562 1900.148438 1285.988281 C 1905.96875 1285.890625 1912.679688 1286.761719 1920.269531 1288.609375 C 1934.910156 1291.710938 1965.191406 1305.480469 2011.121094 1329.910156 C 1993.578125 1339.300781 1974.160156 1345.191406 1952.859375 1347.589844 C 1933.800781 1350.398438 1892.679688 1352.320312 1829.5 1353.351562 C 1887.5 1373.019531 1933.089844 1385.269531 1966.261719 1390.109375 C 1980.851562 1392.03125 1994.378906 1392.691406 2006.839844 1392.109375 C 2066.660156 1385.078125 2097.109375 1382.378906 2098.21875 1384.011719 C 2113.988281 1383.839844 2140.21875 1387.328125 2176.890625 1394.46875 "/>
<path fill-rule="nonzero" fill="rgb(99.609375%, 99.609375%, 99.609375%)" fill-opacity="1" d="M 1556.28125 1826.160156 L 1558.269531 1835.789062 C 1565.378906 1877.050781 1579.78125 1914.441406 1601.460938 1947.96875 C 1619.550781 1977.429688 1663.140625 2026.480469 1732.25 2095.148438 L 1782.5 2018.089844 C 1840.570312 2089.691406 1889.128906 2144.371094 1928.160156 2182.140625 L 1966.910156 2216.410156 L 2092.011719 2313.75 C 2113.191406 2331.378906 2135.460938 2351.890625 2158.808594 2375.269531 C 2238.910156 2456.421875 2285.460938 2533.53125 2298.449219 2606.601562 C 2310.378906 2652.550781 2306.449219 2731.949219 2286.671875 2844.8125 C 2282.558594 2750.636719 2270.589844 2673.421875 2250.761719 2613.179688 C 2232.371094 2559.75 2203.289062 2509.671875 2163.511719 2462.929688 C 2133.769531 2427.878906 2098.851562 2394.761719 2058.761719 2363.570312 L 1996.351562 2317.949219 C 1864.898438 2231.621094 1794.691406 2184.058594 1785.730469 2175.261719 C 1746.929688 2147.050781 1690.191406 2099.828125 1615.5 2033.578125 C 1625.890625 2091.359375 1639.878906 2136.199219 1657.480469 2168.109375 C 1671.789062 2194.5 1681.339844 2210.859375 1686.140625 2217.199219 C 1741.308594 2296.570312 1770.570312 2339.960938 1773.929688 2347.390625 C 1789.691406 2372.898438 1801.328125 2397.519531 1808.859375 2421.25 C 1826.378906 2469.230469 1813.671875 2531.160156 1770.71875 2607.039062 C 1765.039062 2503.828125 1754.921875 2433.828125 1740.359375 2397.050781 C 1733.339844 2377.640625 1724.578125 2358.910156 1714.058594 2340.851562 C 1657.800781 2253.71875 1625.378906 2198.828125 1616.789062 2176.199219 C 1587.761719 2112.019531 1567.761719 2057.828125 1556.808594 2013.621094 C 1537.03125 1952.699219 1536.859375 1890.21875 1556.28125 1826.160156 "/>
<path fill-rule="nonzero" fill="rgb(99.609375%, 99.609375%, 99.609375%)" fill-opacity="1" d="M 1446.441406 1764.011719 L 1448.378906 1780.859375 C 1451.890625 1814.558594 1456.941406 1848.300781 1463.511719 1882.070312 C 1472.390625 1921.5 1480.480469 1949.710938 1487.808594 1966.691406 C 1503.890625 2011.910156 1542.128906 2080.070312 1602.539062 2171.191406 C 1556.410156 2126.660156 1523.289062 2091.371094 1503.160156 2065.320312 C 1483.800781 2039.078125 1473.019531 2023.128906 1470.808594 2017.488281 C 1464.679688 2006.609375 1459.441406 1995.511719 1455.070312 1984.210938 C 1450.769531 1972.890625 1447.339844 1961.359375 1444.800781 1949.621094 L 1441.53125 1931.878906 C 1439.75 1919.960938 1438.609375 1907.878906 1438.121094 1895.660156 C 1436.570312 1865.160156 1439.339844 1821.269531 1446.441406 1764.011719 "/>
<path fill-rule="nonzero" fill="rgb(99.609375%, 99.609375%, 99.609375%)" fill-opacity="1" d="M 2035.199219 1487.429688 L 2026.839844 1496.371094 C 1989.710938 1534.398438 1963.25 1570.410156 1947.480469 1604.421875 C 1944.03125 1612.011719 1940.898438 1619.859375 1938.089844 1627.949219 C 1936.371094 1631.75 1932.738281 1644.339844 1927.199219 1665.71875 C 1921.929688 1687.308594 1916.371094 1718.941406 1910.511719 1760.589844 C 1903.929688 1709.398438 1901.109375 1671.339844 1902.03125 1646.421875 C 1902.289062 1636.371094 1903.089844 1626.730469 1904.429688 1617.511719 L 1906.929688 1604.058594 C 1908.890625 1595.320312 1911.601562 1587.148438 1915.039062 1579.539062 C 1918.53125 1571.96875 1922.75 1564.96875 1927.710938 1558.53125 L 1935.601562 1549.21875 C 1941.191406 1543.269531 1947.320312 1537.730469 1953.980469 1532.609375 C 1970.378906 1519.589844 1997.449219 1504.53125 2035.199219 1487.429688 "/>
<path fill-rule="nonzero" fill="rgb(99.609375%, 99.609375%, 99.609375%)" fill-opacity="1" d="M 2162.410156 1469.949219 L 2153.558594 1470.769531 C 2129.300781 1472.230469 2107.699219 1476.601562 2088.769531 1483.878906 C 2074.960938 1489.761719 2064.441406 1499.238281 2057.21875 1512.320312 C 2052.390625 1521.03125 2048.5 1530.761719 2045.539062 1541.5 C 2043.140625 1549.359375 2040.019531 1563.429688 2036.191406 1583.71875 L 1979.75 1768.488281 C 2027.121094 1646.261719 2057.609375 1574.941406 2071.230469 1554.550781 C 2077.390625 1543.601562 2086.089844 1532.859375 2097.328125 1522.308594 C 2105.488281 1514.269531 2127.179688 1496.820312 2162.410156 1469.949219 "/>
<path fill-rule="nonzero" fill="rgb(99.609375%, 99.609375%, 99.609375%)" fill-opacity="1" d="M 1178.921875 1485.808594 L 1178.839844 1486.160156 C 1178.570312 1487.890625 1178.351562 1490.53125 1178.179688 1494.070312 C 1178.640625 1492.898438 1179.109375 1491.730469 1179.578125 1490.578125 C 1179.378906 1488.648438 1179.160156 1487.058594 1178.921875 1485.808594 Z M 1178.921875 1485.808594 "/>
<path fill-rule="nonzero" fill="rgb(99.609375%, 99.609375%, 99.609375%)" fill-opacity="1" d="M 1178.921875 1485.808594 L 1178.839844 1486.160156 C 1178.570312 1487.890625 1178.351562 1490.53125 1178.179688 1494.070312 C 1178.640625 1492.898438 1179.109375 1491.730469 1179.578125 1490.578125 C 1179.378906 1488.648438 1179.160156 1487.058594 1178.921875 1485.808594 Z M 1178.921875 1485.808594 "/>
<path fill-rule="nonzero" fill="rgb(99.609375%, 99.609375%, 99.609375%)" fill-opacity="1" d="M 1324.878906 1901.710938 L 1319.378906 1962.328125 L 1247.941406 1862.539062 C 1268.980469 1925.820312 1286.140625 1968.78125 1299.441406 1991.441406 C 1312.238281 2015.691406 1334.21875 2043.078125 1365.378906 2073.609375 C 1307.859375 2063.121094 1274.71875 2061.441406 1265.988281 2068.570312 L 1316.910156 2128.410156 L 1299.121094 2151.109375 L 1436.019531 2238.101562 C 1378 2233.230469 1345.058594 2238.328125 1337.191406 2253.410156 C 1335.121094 2256.078125 1332.730469 2260.28125 1330.03125 2266.03125 L 1401 2272.871094 C 1382.53125 2293.550781 1371.011719 2307.96875 1366.429688 2316.128906 C 1361.519531 2324.050781 1359.820312 2332.480469 1361.339844 2341.421875 L 1287.359375 2295.671875 C 1279.171875 2247.390625 1269.308594 2209.191406 1257.800781 2181.078125 C 1242.941406 2147.429688 1218.671875 2113.761719 1184.988281 2080.070312 C 1185.019531 2052.808594 1182.589844 2033.359375 1177.699219 2021.699219 C 1173.691406 2009.691406 1162.769531 1993.660156 1144.929688 1973.601562 C 1168.179688 1935.621094 1192.511719 1891.730469 1217.910156 1841.890625 C 1246.941406 1846.359375 1267.269531 1852.128906 1278.898438 1859.210938 C 1291.039062 1865.421875 1306.371094 1879.589844 1324.878906 1901.710938 "/>
<path fill-rule="nonzero" fill="rgb(99.609375%, 99.609375%, 99.609375%)" fill-opacity="1" d="M 1845.320312 2523.539062 L 1844.191406 2533.300781 C 1840.328125 2575.148438 1831.390625 2613.140625 1817.351562 2647.269531 C 1805.691406 2677.238281 1777.03125 2727.269531 1731.378906 2797.355469 C 1769.308594 2755.304688 1794.5 2724.671875 1806.941406 2705.460938 C 1818.460938 2689.808594 1830.929688 2666.75 1844.359375 2636.300781 C 1851.648438 2619.328125 1860.570312 2595.171875 1871.121094 2563.808594 L 1845.320312 2523.539062 "/>
<path fill-rule="nonzero" fill="rgb(99.609375%, 99.609375%, 99.609375%)" fill-opacity="1" d="M 1632.089844 2672.089844 L 1632.128906 2672.191406 C 1633.121094 2674.109375 1632.449219 2675.039062 1630.128906 2675 C 1626.851562 2674.769531 1622.519531 2673.601562 1617.140625 2671.488281 C 1598.78125 2663.371094 1586.578125 2656.421875 1580.558594 2650.621094 C 1571.230469 2642.878906 1559.710938 2625.460938 1546.011719 2598.351562 C 1542.730469 2591.378906 1541.921875 2587.589844 1543.558594 2586.980469 C 1544.261719 2586.960938 1545.050781 2587.300781 1545.929688 2588.03125 L 1554.960938 2595.390625 C 1567.769531 2606.511719 1583.589844 2621.390625 1602.421875 2640.019531 C 1619.941406 2657.511719 1629.828125 2668.199219 1632.089844 2672.089844 "/>
<path fill-rule="nonzero" fill="rgb(99.609375%, 99.609375%, 99.609375%)" fill-opacity="1" d="M 1482.609375 2701.089844 L 1483.089844 2700.890625 C 1486.851562 2699.328125 1489.808594 2698.21875 1491.980469 2697.550781 C 1501.089844 2695.140625 1508.089844 2693.171875 1513 2691.640625 C 1515.761719 2690.578125 1516.039062 2689.351562 1513.828125 2687.949219 C 1501.230469 2684.550781 1485.191406 2681.679688 1465.691406 2679.328125 C 1449.371094 2677.28125 1438.121094 2676.839844 1431.941406 2678.019531 C 1430.878906 2678.371094 1430.179688 2678.988281 1429.839844 2679.898438 C 1429.628906 2680.320312 1429.660156 2681.128906 1429.929688 2682.339844 C 1430.589844 2684.328125 1432.640625 2687.351562 1436.070312 2691.410156 C 1439.140625 2694.871094 1443.601562 2699.148438 1449.429688 2704.25 C 1450.128906 2704.941406 1454.089844 2708.140625 1461.308594 2713.859375 C 1462.621094 2714.878906 1463.988281 2715.738281 1465.429688 2716.429688 C 1467.269531 2717.148438 1468.410156 2717.480469 1468.828125 2717.441406 L 1469.980469 2717.429688 C 1470.710938 2717.300781 1471.371094 2717 1471.960938 2716.519531 C 1472.320312 2716.421875 1473.109375 2715.441406 1474.328125 2713.578125 L 1478.398438 2705.601562 C 1479.488281 2704.160156 1480.890625 2702.660156 1482.609375 2701.089844 "/>
<path fill-rule="nonzero" fill="rgb(99.609375%, 99.609375%, 99.609375%)" fill-opacity="1" d="M 1937.488281 3201.839844 L 1932.871094 3192.359375 C 1924.011719 3172.992188 1913.441406 3155.40625 1901.171875 3139.597656 C 1896.949219 3134.460938 1892.359375 3129.714844 1887.378906 3125.367188 L 1879.558594 3119.214844 C 1874.128906 3115.335938 1868.179688 3112 1861.710938 3109.203125 L 1853.621094 3106.128906 C 1848.039062 3104.273438 1842.28125 3102.765625 1836.351562 3101.601562 C 1824.289062 3099.3125 1812.691406 3098.183594 1801.570312 3098.214844 C 1796.109375 3098.210938 1791.050781 3098.441406 1786.398438 3098.90625 C 1775.78125 3100.414062 1770.210938 3101.539062 1769.691406 3102.28125 C 1763.789062 3104.695312 1762.21875 3107.351562 1765 3110.257812 C 1766.679688 3112.144531 1769.589844 3114.203125 1773.730469 3116.441406 L 1780.519531 3119.949219 L 1806.738281 3132.277344 C 1813.179688 3135.332031 1819.539062 3138.625 1825.820312 3142.148438 C 1832.109375 3145.671875 1837.890625 3149.445312 1843.160156 3153.472656 L 1850.359375 3159.714844 L 1856.21875 3166.335938 C 1859.660156 3170.890625 1862.390625 3175.539062 1864.421875 3180.292969 C 1866.441406 3185.046875 1867.988281 3189.730469 1869.070312 3194.34375 L 1874.371094 3223.230469 L 1875.75 3226.921875 C 1877.070312 3229.199219 1878.289062 3230.519531 1879.410156 3230.878906 C 1882.410156 3233.121094 1888.949219 3231.828125 1899.050781 3227 C 1905.429688 3224.089844 1918.238281 3215.703125 1937.488281 3201.839844 "/>
<path fill-rule="nonzero" fill="rgb(99.609375%, 99.609375%, 99.609375%)" fill-opacity="1" d="M 2379.828125 2765.773438 L 2379.878906 2766.167969 C 2380.171875 2770.769531 2381.421875 2774.917969 2383.640625 2778.617188 C 2383.449219 2779.058594 2389.359375 2787.746094 2401.351562 2804.671875 C 2404.238281 2809.011719 2406.769531 2813.515625 2408.921875 2818.183594 C 2409.5 2818.910156 2410.890625 2822.925781 2413.078125 2830.234375 C 2413.800781 2832.652344 2415.679688 2839.996094 2418.699219 2852.261719 C 2419.871094 2856.75 2420.660156 2859.597656 2421.050781 2860.800781 C 2422.710938 2866.257812 2423.859375 2869 2424.480469 2869.035156 C 2426.109375 2870.5 2427.941406 2869.039062 2429.960938 2864.660156 C 2431.839844 2861.105469 2433.820312 2855.144531 2435.929688 2846.777344 C 2439.300781 2832.054688 2440.25 2819.101562 2438.78125 2807.925781 C 2437.980469 2801.0625 2436.699219 2794.242188 2434.949219 2787.472656 C 2432.351562 2777.625 2429.199219 2767.332031 2425.511719 2756.59375 C 2422.921875 2748.898438 2419.730469 2741.171875 2415.949219 2733.410156 C 2414.089844 2729.898438 2412.261719 2727.550781 2410.449219 2726.351562 C 2405.429688 2723.929688 2399.359375 2727.351562 2392.238281 2736.609375 C 2384.589844 2747.808594 2380.449219 2757.53125 2379.828125 2765.773438 "/>
<path fill-rule="nonzero" fill="rgb(99.609375%, 99.609375%, 99.609375%)" fill-opacity="1" d="M 1169.699219 2172.371094 L 1172.480469 2177.769531 C 1183.988281 2201.050781 1196.75 2221.328125 1210.75 2238.609375 C 1222.78125 2253.890625 1246.738281 2277.949219 1282.648438 2310.789062 L 1255.320312 2323.53125 C 1232.910156 2299.371094 1216.679688 2281.128906 1206.648438 2268.800781 C 1198.441406 2258.859375 1191.511719 2249.480469 1185.839844 2240.671875 C 1183.941406 2238.25 1180.679688 2232.089844 1176.039062 2222.179688 C 1172.929688 2214.519531 1170.949219 2207.371094 1170.109375 2200.730469 C 1169.019531 2190.851562 1168.878906 2181.390625 1169.699219 2172.371094 "/>
<path fill-rule="nonzero" fill="rgb(99.609375%, 99.609375%, 99.609375%)" fill-opacity="1" d="M 1126.070312 2217.28125 L 1126.011719 2217.609375 C 1124.820312 2243.109375 1126.730469 2272.828125 1131.75 2306.75 C 1134.589844 2327.328125 1140.878906 2349.710938 1150.609375 2373.910156 C 1162.039062 2399.789062 1174.011719 2421.140625 1186.519531 2437.949219 C 1209.238281 2469.230469 1230.589844 2494.519531 1250.570312 2513.808594 L 1239.78125 2496.730469 C 1215.019531 2461.199219 1199.25 2437.808594 1192.46875 2426.558594 C 1177.589844 2402.488281 1167.390625 2383.480469 1161.890625 2369.550781 C 1155.640625 2354.550781 1150.109375 2337.160156 1145.320312 2317.398438 C 1140.679688 2298.890625 1135.25 2269.140625 1129.03125 2228.140625 C 1127.929688 2222.390625 1126.941406 2218.769531 1126.070312 2217.28125 "/>
<path fill-rule="nonzero" fill="rgb(99.609375%, 99.609375%, 99.609375%)" fill-opacity="1" d="M 995.816406 1754.261719 L 995.527344 1754.5 C 992.144531 1757.25 982.816406 1768.28125 967.542969 1787.570312 C 944.972656 1816.378906 915.964844 1853.980469 880.515625 1900.390625 C 870.082031 1913.679688 854.566406 1932.660156 833.972656 1957.351562 L 822.46875 1972.421875 C 852.570312 1947.53125 881.605469 1917.550781 909.578125 1882.5 C 924.789062 1863.480469 941.824219 1839.898438 960.675781 1811.769531 C 970.71875 1796.878906 979.667969 1783.050781 987.515625 1770.28125 C 992.582031 1761.949219 995.347656 1756.621094 995.816406 1754.261719 "/>
<path fill-rule="nonzero" fill="rgb(99.609375%, 99.609375%, 99.609375%)" fill-opacity="1" d="M 2309.289062 1050.46875 L 2309.210938 1050.25 C 2300.511719 1033.300781 2288.640625 1015.660156 2273.621094 997.328125 C 2259.941406 981.328125 2246.679688 968.628906 2233.839844 959.25 C 2218.589844 947.878906 2199.421875 936.789062 2176.308594 925.980469 C 2146.820312 912.320312 2122.179688 902.589844 2102.410156 896.789062 L 2120.898438 907.640625 C 2161.589844 929.191406 2184.699219 941.78125 2190.21875 945.398438 C 2205.769531 954.621094 2219.109375 963.308594 2230.238281 971.449219 C 2240.671875 978.890625 2252.101562 988.820312 2264.53125 1001.230469 C 2271.160156 1007.648438 2284.039062 1022.179688 2303.179688 1044.808594 C 2307.140625 1049.070312 2309.171875 1050.949219 2309.289062 1050.46875 "/>
<path fill-rule="nonzero" fill="rgb(99.609375%, 99.609375%, 99.609375%)" fill-opacity="1" d="M 2376.910156 1267.519531 L 2376.78125 1267.269531 C 2375.171875 1264.398438 2372 1259.851562 2367.269531 1253.609375 L 2326.828125 1201.710938 C 2309.808594 1179.210938 2300.101562 1166.019531 2297.710938 1162.148438 C 2292.039062 1153.71875 2286.808594 1145.140625 2282.011719 1136.429688 L 2260.019531 1093.941406 C 2264.589844 1114.039062 2271.53125 1133.390625 2280.839844 1152 C 2291.488281 1172.648438 2302.921875 1190.019531 2315.140625 1204.101562 C 2345.648438 1239.070312 2366.238281 1260.210938 2376.910156 1267.519531 "/>
<path fill-rule="nonzero" fill="rgb(99.609375%, 99.609375%, 99.609375%)" fill-opacity="1" d="M 1504.140625 1275.089844 L 1503.488281 1275.050781 C 1366.851562 1280.550781 1267.621094 1322.421875 1205.789062 1400.679688 C 1177.46875 1434.710938 1152.589844 1488.621094 1131.160156 1562.398438 C 1109.308594 1637.53125 1094.320312 1715.621094 1086.160156 1796.679688 C 1102.121094 1756.699219 1124.75 1694.570312 1154.070312 1610.289062 L 1179 1547.390625 C 1191.980469 1513.429688 1216.160156 1470.019531 1251.558594 1417.148438 C 1269.550781 1391.488281 1299.121094 1366.550781 1340.261719 1342.351562 C 1355.410156 1334.039062 1371.03125 1326.660156 1387.101562 1320.210938 C 1407.988281 1311.820312 1441.738281 1299.691406 1488.339844 1283.800781 C 1499.769531 1279.648438 1505.039062 1276.75 1504.140625 1275.089844 "/>
<path fill-rule="nonzero" fill="rgb(99.609375%, 99.609375%, 99.609375%)" fill-opacity="1" d="M 1331.589844 1269.761719 L 1331.160156 1269.761719 C 1303.789062 1273.148438 1269.878906 1281.019531 1229.421875 1293.378906 C 1197.660156 1303.011719 1167.089844 1315.898438 1137.679688 1332.058594 C 1113.398438 1347 1089.378906 1365.460938 1065.628906 1387.429688 C 1031.960938 1419.171875 1005.429688 1448.171875 986.027344 1474.410156 L 1011.269531 1454.429688 C 1045.851562 1424.878906 1069.011719 1405.628906 1080.769531 1396.691406 C 1098.238281 1382.910156 1116.640625 1370.089844 1135.96875 1358.230469 C 1164.808594 1340.859375 1188.378906 1328.308594 1206.660156 1320.570312 C 1213.519531 1316.640625 1250.351562 1302.191406 1317.140625 1277.230469 C 1327.78125 1272.660156 1332.601562 1270.179688 1331.589844 1269.761719 "/>
<path fill-rule="nonzero" fill="rgb(99.609375%, 99.609375%, 99.609375%)" fill-opacity="1" d="M 1469.460938 1335.640625 L 1469.019531 1335.859375 C 1427.589844 1365.46875 1395.660156 1395.25 1373.230469 1425.210938 C 1363.421875 1437.398438 1353.539062 1453.75 1343.558594 1474.238281 C 1336.230469 1490.449219 1331.128906 1505.410156 1328.261719 1519.089844 C 1324.621094 1533.480469 1322.289062 1554.699219 1321.269531 1582.730469 C 1320.710938 1599.28125 1321.730469 1619.75 1324.339844 1644.128906 C 1333.371094 1714.601562 1346.320312 1775.578125 1363.179688 1827.058594 L 1362.5 1821.011719 C 1361.621094 1804.109375 1360.789062 1792.609375 1360 1786.488281 C 1352.910156 1726.710938 1349.121094 1693.378906 1348.648438 1686.511719 C 1346.949219 1669.980469 1345.589844 1652.078125 1344.578125 1632.828125 C 1343.53125 1599.011719 1343.519531 1577.179688 1344.550781 1567.328125 C 1345.679688 1550.660156 1347.578125 1536.371094 1350.25 1524.460938 C 1353.238281 1510.160156 1357.359375 1496.53125 1362.628906 1483.550781 C 1370.910156 1464.230469 1378.769531 1449.140625 1386.238281 1438.28125 C 1392.691406 1428.210938 1400.398438 1417.609375 1409.359375 1406.46875 C 1412.648438 1401.691406 1429.691406 1382.25 1460.488281 1348.140625 C 1467.019531 1340.359375 1470.011719 1336.191406 1469.460938 1335.640625 "/>
<path fill-rule="nonzero" fill="rgb(99.609375%, 99.609375%, 99.609375%)" fill-opacity="1" d="M 2108.671875 1249.058594 L 2108 1248.449219 C 2086.011719 1231.898438 2020.070312 1194.621094 1910.171875 1136.609375 L 1572.808594 963.429688 C 1482.96875 918.980469 1426.398438 892.988281 1403.070312 885.46875 C 1473.71875 933.679688 1584.128906 995.929688 1734.308594 1072.191406 C 1906.289062 1162.640625 2031.070312 1221.601562 2108.671875 1249.058594 "/>
<path fill-rule="nonzero" fill="rgb(99.609375%, 99.609375%, 99.609375%)" fill-opacity="1" d="M 2358.589844 1372.75 L 2340.390625 1362.890625 C 2303.660156 1342.578125 2268.339844 1324.890625 2234.449219 1309.808594 C 2223.25 1304.980469 2212.378906 1300.71875 2201.808594 1297.050781 L 2186.261719 1292.089844 L 2171.300781 1288.210938 L 2156.988281 1285.539062 L 2143.359375 1284.121094 L 2130.390625 1283.910156 L 2118.011719 1284.789062 C 2109.949219 1285.738281 2102.199219 1287.269531 2094.78125 1289.378906 C 2076.050781 1294.359375 2052.25 1305.808594 2023.378906 1323.710938 C 2100.570312 1326.949219 2157.730469 1331.480469 2194.839844 1337.300781 C 2208.890625 1339.101562 2231.878906 1343.320312 2263.808594 1349.96875 C 2286.570312 1354.839844 2318.171875 1362.429688 2358.589844 1372.75 "/>
<path fill-rule="nonzero" fill="rgb(99.609375%, 99.609375%, 99.609375%)" fill-opacity="1" d="M 2175.898438 854.398438 L 2183.640625 860.410156 C 2228.171875 893.039062 2264.539062 928.378906 2292.730469 966.441406 C 2330.398438 1016.96875 2369.660156 1087.089844 2410.488281 1176.78125 C 2415.28125 1185.351562 2429.488281 1198.789062 2453.128906 1217.089844 L 2462.050781 1223.96875 C 2489.148438 1225.179688 2511.039062 1228.28125 2527.710938 1233.269531 C 2551.371094 1241.089844 2569.238281 1249.289062 2581.339844 1257.859375 C 2611.679688 1275.609375 2665.03125 1323.179688 2741.390625 1400.570312 C 2720.359375 1345.300781 2699.789062 1304.890625 2679.679688 1279.359375 C 2662.890625 1255.589844 2636.269531 1235.101562 2599.789062 1217.890625 C 2570.269531 1204.921875 2519.738281 1189.910156 2448.210938 1172.871094 C 2437 1169.511719 2429.550781 1165.921875 2425.851562 1162.101562 C 2424.28125 1161.5 2422.378906 1157.828125 2420.128906 1151.089844 C 2416.480469 1124.851562 2412.851562 1106.871094 2409.25 1097.160156 C 2402.691406 1077.140625 2398.179688 1064.621094 2395.71875 1059.609375 C 2384.550781 1031.839844 2369.03125 1004.578125 2349.160156 977.820312 C 2328.980469 952.230469 2305.148438 930.351562 2277.691406 912.179688 C 2255.238281 896.601562 2221.308594 877.339844 2175.898438 854.398438 "/>
</svg>
